<svg xmlns="http://www.w3.org/2000/svg" xmlns:xlink="http://www.w3.org/1999/xlink" version="1.1" x="0px" y="0px" viewBox="0 0 100 125" style="enable-background:new 0 0 100 100;" xml:space="preserve"><path d="M37.199,30.477c-0.279,0.015-0.541,0.146-0.72,0.361s-0.259,0.497-0.22,0.775c0.274,1.98-0.462,3.943-1.969,5.25  c-0.244,0.211-0.503,0.399-0.777,0.565l0.1-1.762c0.022-0.391-0.185-0.758-0.53-0.94c-0.347-0.183-0.766-0.147-1.077,0.091  c-1.697,1.305-3.352,0.137-3.53,0.003c-0.311-0.241-0.732-0.278-1.078-0.095c-0.347,0.183-0.555,0.551-0.532,0.941l0.083,1.456  c-0.091-0.067-0.179-0.138-0.265-0.211c-1.49-1.261-2.259-3.171-2.055-5.108c0.03-0.279-0.06-0.559-0.247-0.769  c-0.187-0.211-0.453-0.332-0.734-0.336c-2.384,0.01-4.576,0.872-6.241,2.538c-2.881,2.882-3.379,7.3-1.212,10.745  c0.19,0.303,0.498,0.495,0.887,0.467c0.357-0.014,0.681-0.219,0.847-0.536c0.195-0.374,0.479-0.688,0.839-0.933  c0.828-0.56,1.979-0.544,2.797,0.035c0.661,0.469,1.05,1.196,1.066,1.997c0.006,0.287,0.142,0.557,0.361,0.741  s0.512,0.266,0.798,0.225c0.13-0.018,3.122-0.405,5.583,3.882c0.179,0.311,0.51,0.502,0.867,0.502c0.009,0,0.019,0,0.027,0  c0.367-0.011,0.7-0.222,0.866-0.55c0.018-0.037,1.914-3.683,6.378-3.432c0.319,0.012,0.607-0.106,0.811-0.338  c0.204-0.232,0.289-0.545,0.231-0.848c-0.171-0.896,0.161-1.814,0.866-2.398c0.835-0.69,2.054-0.748,2.965-0.146  c0.373,0.247,0.662,0.581,0.861,0.993c0.158,0.327,0.482,0.543,0.846,0.562c0.354,0.021,0.709-0.158,0.902-0.467  c2.158-3.443,1.657-7.857-1.22-10.733C42.042,31.274,39.636,30.361,37.199,30.477z M43.947,41.332  c-0.144-0.125-0.297-0.241-0.459-0.349c-1.642-1.086-3.841-0.977-5.345,0.273c-0.955,0.791-1.528,1.924-1.622,3.123  c-3.187,0.171-5.199,1.911-6.257,3.187c-2.097-2.853-4.445-3.479-5.765-3.584c-0.255-1.04-0.875-1.956-1.78-2.598  c-1.505-1.068-3.543-1.093-5.072-0.062c-0.138,0.093-0.27,0.192-0.395,0.298c-0.866-2.393-0.301-5.101,1.567-6.97  c1.038-1.038,2.355-1.69,3.784-1.889c0.094,2.18,1.092,4.241,2.787,5.676c0.679,0.575,1.455,1.027,2.309,1.344  c0.314,0.119,0.672,0.068,0.941-0.133c0.271-0.201,0.424-0.524,0.404-0.861l-0.089-1.559c0.754,0.21,1.641,0.281,2.562,0.032  l-0.095,1.672c-0.019,0.324,0.122,0.638,0.377,0.84c0.255,0.204,0.594,0.269,0.904,0.176c1.083-0.319,2.057-0.849,2.895-1.574  c1.725-1.496,2.696-3.631,2.716-5.874c1.518,0.155,2.952,0.828,4.043,1.919C44.212,36.272,44.784,38.954,43.947,41.332z"/><path d="M90.357,38.441c-0.333-1.111-1.078-2.027-2.1-2.578l-8.476-4.572c0.378-1.057,0.344-2.2-0.116-3.229  c-0.474-1.06-1.33-1.872-2.414-2.286l-9.061-3.468l0.038-0.189c0.469-2.348-1.061-4.64-3.41-5.108l-13.701-2.732  C51.082,11.914,49.153,10,46.78,10H14.531c-2.396,0-4.344,1.948-4.344,4.344v52.142c0,2.395,1.948,4.343,4.344,4.343h10.156  c0.052,0.031,0.094,0.074,0.152,0.096l4.615,1.755c0.386,0.576,0.905,1.068,1.544,1.412L59.382,89.4  c0.643,0.347,1.346,0.523,2.056,0.523c0.419,0,0.839-0.062,1.251-0.185c1.111-0.333,2.027-1.078,2.577-2.1l24.753-45.892  C90.569,40.728,90.689,39.553,90.357,38.441z M76.537,27.644c0.585,0.225,1.047,0.662,1.303,1.234  c0.255,0.571,0.272,1.208,0.049,1.793L59.248,79.366c-0.225,0.585-0.662,1.047-1.233,1.303c-0.571,0.254-1.208,0.271-1.795,0.048  l-18.774-7.139l15.479,3.086c0.286,0.058,0.573,0.086,0.858,0.086c0.85,0,1.681-0.25,2.402-0.732  c0.966-0.644,1.621-1.626,1.848-2.764l9.761-48.957L76.537,27.644z M65.918,19.97c0.348,0.521,0.472,1.145,0.35,1.759L56.072,72.863  c-0.122,0.614-0.477,1.144-0.997,1.491c-0.521,0.347-1.147,0.469-1.76,0.349l-19.437-3.875H46.78c2.396,0,4.344-1.948,4.344-4.343  V16.319l13.304,2.653C65.041,19.095,65.57,19.448,65.918,19.97z M12.188,66.485V14.344c0-1.292,1.052-2.344,2.344-2.344H46.78  c1.292,0,2.344,1.052,2.344,2.344v52.142c0,1.292-1.052,2.343-2.344,2.343H14.531C13.239,68.828,12.188,67.777,12.188,66.485z   M88.259,40.799L63.506,86.69c-0.297,0.551-0.791,0.953-1.391,1.133c-0.601,0.179-1.234,0.114-1.784-0.183L40.089,76.722  l15.418,5.862c0.504,0.193,1.029,0.29,1.554,0.29c0.603,0,1.203-0.127,1.77-0.38c1.059-0.474,1.871-1.33,2.285-2.414l17.954-46.902  l8.239,4.444c0.551,0.298,0.953,0.792,1.133,1.392S88.556,40.248,88.259,40.799z"/><text x="0" y="115" fill="#000000" font-size="5px" font-weight="bold" font-family="'Helvetica Neue', Helvetica, Arial-Unicode, Arial, Sans-serif">Created by Made</text><text x="0" y="120" fill="#000000" font-size="5px" font-weight="bold" font-family="'Helvetica Neue', Helvetica, Arial-Unicode, Arial, Sans-serif">from the Noun Project</text></svg>