<svg xmlns:dc="http://purl.org/dc/elements/1.1/" xmlns:cc="http://creativecommons.org/ns#" xmlns:rdf="http://www.w3.org/1999/02/22-rdf-syntax-ns#" xmlns:svg="http://www.w3.org/2000/svg" xmlns="http://www.w3.org/2000/svg" xmlns:sodipodi="http://sodipodi.sourceforge.net/DTD/sodipodi-0.dtd" xmlns:inkscape="http://www.inkscape.org/namespaces/inkscape" viewBox="0 0 32 40.00000125" version="1.1" x="0px" y="0px"><g transform="translate(0,-1020.3622)"><path style="color:#02b3e4;font-style:normal;font-variant:normal;font-weight:normal;font-stretch:normal;font-size:medium;line-height:normal;font-family:sans-serif;text-indent:0;text-align:start;text-decoration:none;text-decoration-line:none;text-decoration-style:solid;text-decoration-color:#02b3e4;letter-spacing:normal;word-spacing:normal;text-transform:none;direction:ltr;block-progression:tb;writing-mode:lr-tb;baseline-shift:baseline;text-anchor:start;white-space:normal;clip-rule:nonzero;display:inline;overflow:visible;visibility:visible;opacity:1;isolation:auto;mix-blend-mode:normal;color-interpolation:sRGB;color-interpolation-filters:linearRGB;solid-color:#02b3e4;solid-opacity:1;fill:#02b3e4;fill-opacity:1;fill-rule:evenodd;stroke:none;stroke-width:1px;stroke-linecap:butt;stroke-linejoin:miter;stroke-miterlimit:4;stroke-dasharray:none;stroke-dashoffset:0;stroke-opacity:1;color-rendering:auto;image-rendering:auto;shape-rendering:auto;text-rendering:auto;enable-background:accumulate" d="M 16.011719 2.0078125 C 15.873218 1.992375 15.731846 1.9910156 15.59375 2.0097656 L 15.59375 2.015625 C 15.317558 2.053625 15.052262 2.1664594 14.837891 2.3808594 L 11.855469 5.3632812 C 11.762969 5.3332813 11.671647 5.2955313 11.578125 5.2695312 A 0.50005 0.50005 0 0 0 11.576172 5.2695312 C 9.6369366 4.7499312 7.566037 5.3055094 6.1464844 6.7246094 A 0.50005 0.50005 0 0 0 6.1464844 7.4316406 L 7.9472656 9.2324219 C 7.4171001 9.9584995 7.2319335 10.891493 7.46875 11.775391 C 7.7459429 12.809891 8.5553395 13.621238 9.5898438 13.898438 C 10.473633 14.135253 11.406725 13.94806 12.132812 13.417969 L 13.390625 14.675781 A 0.50005 0.50005 0 0 0 14.097656 14.675781 C 15.517153 13.255881 16.070444 11.185394 15.550781 9.2460938 A 0.50005 0.50005 0 0 0 15.550781 9.2363281 C 15.525041 9.1443281 15.487461 9.0556438 15.457031 8.9648438 L 15.986328 8.4355469 A 0.50005 0.50005 0 0 0 16.751953 8.4882812 L 16.783203 8.4570312 C 18.463655 9.4202626 20.009563 10.754704 20.712891 12.501953 L 20.714844 12.501953 C 21.115885 13.468753 20.962083 14.625447 21 15.873047 L 21 25 L 20.5 25 A 0.50004994 0.50004994 0 0 0 20 25.5 L 20 27 L 10.5 27 A 0.50004994 0.50004994 0 0 0 10 27.5 L 10 30.5 A 0.50004994 0.50004994 0 0 0 10.5 31 L 24.5 31 A 0.50004994 0.50004994 0 0 0 25 30.5 L 25 27.5 A 0.50004994 0.50004994 0 0 0 24.5 27 L 23 27 L 23 25.5 A 0.50004994 0.50004994 0 0 0 22.5 25 L 22 25 L 22 15.849609 L 22 15.837891 C 21.96585 14.714291 22.172254 13.406341 21.640625 12.119141 L 21.638672 12.119141 C 20.848845 10.15929 19.221752 8.7473869 17.509766 7.7265625 A 0.50005 0.50005 0 0 0 17.419922 7.0019531 L 18.443359 5.9785156 C 18.872095 5.5497156 18.891658 4.9171969 18.720703 4.4042969 C 18.549748 3.8913969 18.214952 3.4142125 17.808594 3.0078125 C 17.402236 2.6014125 16.92691 2.2667031 16.414062 2.0957031 C 16.285851 2.0527031 16.15022 2.02325 16.011719 2.0078125 z M 15.75 2.9863281 C 15.836122 2.9783031 15.946648 2.9984781 16.097656 3.0488281 C 16.399673 3.1495281 16.783579 3.4027031 17.101562 3.7207031 C 17.419546 4.0388031 17.672741 4.4225094 17.773438 4.7246094 C 17.874133 5.0267094 17.848845 5.1628438 17.734375 5.2773438 L 14.53125 8.4824219 A 0.50005 0.50005 0 0 0 14.421875 9.0234375 C 14.485835 9.1818375 14.540202 9.3421594 14.585938 9.5058594 C 14.967263 10.928959 14.550678 12.383484 13.648438 13.521484 L 10.474609 10.347656 L 7.3007812 7.1738281 C 8.4386401 6.2712281 9.8951918 5.8549281 11.318359 6.2363281 C 11.484677 6.2813281 11.646409 6.3370906 11.804688 6.4003906 A 0.50005 0.50005 0 0 0 12.34375 6.2890625 L 15.544922 3.0878906 C 15.60216 3.0306406 15.663878 2.9943531 15.75 2.9863281 z M 8.6933594 10.033203 L 10.013672 11.353516 L 11.333984 12.673828 C 10.881414 12.934128 10.365966 13.070541 9.8476562 12.931641 C 9.1566999 12.746541 8.6187426 12.208578 8.4335938 11.517578 C 8.294718 10.999278 8.4331558 10.485803 8.6933594 10.033203 z M 21 26 L 22 26 L 22 27 L 21 27 L 21 26 z M 11 28 L 20.423828 28 A 0.50004994 0.50004994 0 0 0 20.570312 28 L 22.423828 28 A 0.50004994 0.50004994 0 0 0 22.570312 28 L 24 28 L 24 30 L 11 30 L 11 28 z " transform="translate(0,1020.3622)"/></g><text x="0" y="47.000001" fill="#02b3e4" font-size="5px" font-weight="bold" font-family="'Helvetica Neue', Helvetica, Arial-Unicode, Arial, Sans-serif">Created by Chameleon Design</text><text x="0" y="52.000001" fill="#02b3e4" font-size="5px" font-weight="bold" font-family="'Helvetica Neue', Helvetica, Arial-Unicode, Arial, Sans-serif">from the Noun Project</text></svg>