<svg xmlns="http://www.w3.org/2000/svg" data-name="Layer 1" viewBox="0 0 100 125" x="0px" y="0px"><title>Artboard 19</title><path d="M64.78,81.05a8.35,8.35,0,0,0,.12,1.29c.07.43.11.87.21,1.3a18,18,0,0,0,.77,2.57l.48,1.24c.12.28.22.57.31.86a7.53,7.53,0,0,1,.31,1.8A8.62,8.62,0,0,1,66.86,92c-.06.32-.13.64-.23,1,0,.16-.1.32-.15.48l-.09.24-.09.28c0,.14-.08.27-.1.41a4.22,4.22,0,0,0,4.66,5l.43-.07.22-.05.67-.17,1.33-.37a34.8,34.8,0,0,0,10.26-4.77,19.51,19.51,0,0,0,4.33-4.13,14.55,14.55,0,0,0,2.62-5.55,15,15,0,0,0,.12-5.84,20.23,20.23,0,0,0-1.59-5A34.17,34.17,0,0,0,84.43,66l-.11-.14a1.88,1.88,0,0,0-1.52-.67c-5,.2-8.16.51-10.52.8-.3,0-.27.65.06,1.36s.72,1.15,1,1.18c2.12.25,4.69.52,8.32.7a34.62,34.62,0,0,1,3.18,6A12.74,12.74,0,0,1,85.6,83a11.79,11.79,0,0,1-5,6.44,32.06,32.06,0,0,1-8.67,4h0q.06-.34.12-.68a13.44,13.44,0,0,0,.07-3.1,12.31,12.31,0,0,0-.67-3,14,14,0,0,0-.59-1.37l-.44-1a14.22,14.22,0,0,1-.69-1.85c-.1-.31-.14-.63-.22-.93a5.31,5.31,0,0,1-.16-.93c-.71-5,1.89-9.57,3.55-12.07a2.64,2.64,0,0,1-.24-.47c-.12-.27-.22-.63-.38-1-.25-.62-.79-.88-1.19-.53l-.62.6c-.18.17-.35.36-.53.55-.36.38-.71.8-1.07,1.24a21.82,21.82,0,0,0-2,3.13,19.23,19.23,0,0,0-1.55,4A16.39,16.39,0,0,0,64.78,81.05Z"/><path d="M82.72,60.65c.66.14,1.25,0,1.37-.4a103.66,103.66,0,0,0,5-25.58,83.19,83.19,0,0,0-.85-17.29c-.5-3-1.08-6-1.88-9L86,7.29l-.15-.58c-.09-.27-.16-.54-.27-.79a8.35,8.35,0,0,0-1.84-2.79,8.52,8.52,0,0,0-12.05,0,8.41,8.41,0,0,0-2.12,3.58l-.16.59-.29,1.12c-.81,3-1.38,6-1.89,9a83.31,83.31,0,0,0-.86,17.29,103.79,103.79,0,0,0,5,25.59c.13.41.86.58,1.6.36s1.13-.63,1.07-1c-.94-5.93-2.66-14.79-2.81-25.1a88.58,88.58,0,0,1,1.31-16.25c.53-2.79,1.11-5.63,1.91-8.45l.28-1.06.14-.5A3,3,0,0,1,75.6,7a3.07,3.07,0,0,1,4.3,0,2.9,2.9,0,0,1,.64,1c0,.09.06.18.1.27l.14.51.28,1.06c.79,2.82,1.37,5.65,1.91,8.45a88.51,88.51,0,0,1,1.31,16.26c-.15,10.32-1.87,19.18-2.8,25.11C81.42,60,82,60.5,82.72,60.65Z"/><path d="M59.42,10.57a58.36,58.36,0,0,0-14.82-.16,46.14,46.14,0,0,0-18.7,6.08,34.32,34.32,0,0,0-8.63,7.45A35.34,35.34,0,0,0,11.37,34.4a42.51,42.51,0,0,0-1.67,5.89l-.55,3L9,45l0,1.66a22.92,22.92,0,0,0,3.89,12.57,23.49,23.49,0,0,0,10.06,8.44,23.23,23.23,0,0,0,6.32,1.76,23.76,23.76,0,0,0,3.24.19l2.87,0,11.2-.11,2.72,0c1.15,0,1.18,0,1.53.11a1.47,1.47,0,0,1,.85,1.61,1.54,1.54,0,0,1-.47.86l-.2.15-.11.06-.17.08-1.14.51-2.24,1-1.1.5-.54.25c-.18.08-.48.22-.7.35a7.89,7.89,0,0,0-3.23,10.55A7.6,7.6,0,0,0,45.64,89a7.25,7.25,0,0,0,1.23.38l.62.11.5.06c.66.07,1.3.12,1.92.16a62.7,62.7,0,0,0,6.72,0c.57,0,1-.69,1-1.46S57.15,87,56.66,87c-1.93-.14-4.09-.31-6.41-.64-.58-.08-1.17-.18-1.76-.29L48,86l-.32-.09a3.69,3.69,0,0,1-.62-.25,3.89,3.89,0,0,1-2-4.72A3.69,3.69,0,0,1,47,78.82l4.32-1.75,1.16-.47.4-.18c.15-.07.3-.15.44-.23a6.42,6.42,0,0,0,.83-.57,6.34,6.34,0,0,0-1.23-10.57,6.4,6.4,0,0,0-2.09-.63c-.86-.07-1.14,0-1.62-.06l-2.72,0-11.2-.11-2.87,0A18.58,18.58,0,0,1,29.93,64a18.08,18.08,0,0,1-4.84-1.39,18.28,18.28,0,0,1-7.7-6.5,17.69,17.69,0,0,1-3-9.57l0-1.26.12-1.25L15,41.36a38.29,38.29,0,0,1,1.39-5.18,31,31,0,0,1,4.86-9,30.33,30.33,0,0,1,7.22-6.61,44.84,44.84,0,0,1,16.71-6.26,70.71,70.71,0,0,1,14-1c.53,0,1-.58,1.05-1.33A1.16,1.16,0,0,0,59.42,10.57Z"/><path d="M53.3,23.5a4.73,4.73,0,0,1,2.06.37A4.12,4.12,0,0,0,56.48,23c.47-.48.77-.93.7-1A5.8,5.8,0,0,0,54,19.66a7,7,0,0,0-5.36.65,7.48,7.48,0,0,0-3.69,5.33,7.74,7.74,0,0,0,8.86,8.88,7.5,7.5,0,0,0,5.34-3.69,7,7,0,0,0,.66-5.38,5.83,5.83,0,0,0-2.25-3.21c-.13-.09-.67.3-1.21.86a3.6,3.6,0,0,0-.81,1,4.69,4.69,0,0,1,.37,2,3.43,3.43,0,0,1-.82,2.08,2.89,2.89,0,0,1-2,1,2.69,2.69,0,0,1-2.88-2.87,2.91,2.91,0,0,1,1-2A3.46,3.46,0,0,1,53.3,23.5Z"/><path d="M40.29,36A7,7,0,0,0,41,30.67a5.83,5.83,0,0,0-2.25-3.21c-.13-.09-.67.3-1.21.86a3.6,3.6,0,0,0-.81,1,4.69,4.69,0,0,1,.37,2,3.43,3.43,0,0,1-.82,2.08,2.89,2.89,0,0,1-2,1,2.69,2.69,0,0,1-2.88-2.87,2.91,2.91,0,0,1,1-2,3.46,3.46,0,0,1,2.1-.83,4.73,4.73,0,0,1,2.06.37,4.12,4.12,0,0,0,1.12-.92c.47-.48.77-.93.7-1a5.8,5.8,0,0,0-3.19-2.26,7,7,0,0,0-5.36.65,7.48,7.48,0,0,0-3.69,5.33,7.74,7.74,0,0,0,8.86,8.88A7.5,7.5,0,0,0,40.29,36Z"/><path d="M29.24,47.42a4.73,4.73,0,0,1,2.06.37,4.12,4.12,0,0,0,1.12-.92c.47-.48.77-.93.7-1a5.8,5.8,0,0,0-3.19-2.26,7,7,0,0,0-5.36.65,7.48,7.48,0,0,0-3.69,5.33,7.74,7.74,0,0,0,8.86,8.88,7.5,7.5,0,0,0,5.34-3.69,7,7,0,0,0,.66-5.38,5.83,5.83,0,0,0-2.25-3.21c-.13-.09-.67.3-1.21.86a3.6,3.6,0,0,0-.81,1,4.69,4.69,0,0,1,.37,2A3.43,3.43,0,0,1,31,52.14a2.89,2.89,0,0,1-2,1,2.69,2.69,0,0,1-2.88-2.87,2.91,2.91,0,0,1,1-2A3.46,3.46,0,0,1,29.24,47.42Z"/><text x="0" y="115" fill="#000000" font-size="5px" font-weight="bold" font-family="'Helvetica Neue', Helvetica, Arial-Unicode, Arial, Sans-serif">Created by Gregor Cresnar</text><text x="0" y="120" fill="#000000" font-size="5px" font-weight="bold" font-family="'Helvetica Neue', Helvetica, Arial-Unicode, Arial, Sans-serif">from the Noun Project</text></svg>