<svg xmlns="http://www.w3.org/2000/svg" xmlns:xlink="http://www.w3.org/1999/xlink" version="1.1" x="0px" y="0px" viewBox="0 0 64 80" enable-background="new 0 0 64 64" xml:space="preserve"><g><path fill="#000000" d="M32,43.515c-1.236,0-2.241-1.006-2.241-2.241c0-1.237,1.006-2.242,2.241-2.242   c1.236,0,2.241,1.006,2.241,2.242C34.241,42.509,33.236,43.515,32,43.515z M32,40.004c-0.699,0-1.268,0.569-1.268,1.269   s0.569,1.268,1.268,1.268s1.268-0.568,1.268-1.268S32.699,40.004,32,40.004z"/><path fill="#000000" d="M39.117,62.64c-0.35,0-0.706-0.007-1.055-0.021c-1.164-0.026-1.751-0.537-1.946-1.71   c-0.05-0.308-0.093-0.619-0.134-0.93c-0.06-0.443-0.118-0.888-0.212-1.328c-0.057-0.252-0.144-0.514-0.246-0.785   c-0.607-0.028-1.705-0.054-3.338-0.054c-1.768,0-3.029,0.03-3.707,0.064c-0.105,0.281-0.19,0.542-0.247,0.798   c-0.089,0.427-0.147,0.874-0.206,1.319c-0.041,0.31-0.082,0.62-0.132,0.926c-0.191,1.173-0.777,1.686-1.96,1.716   c-0.347,0.016-0.725,0.023-1.094,0.024h-0.043c-1.051,0-1.698-0.551-1.871-1.593l-0.051-0.337c-0.128-0.847-0.257-1.7-0.345-2.545   c-0.317-2.918,0.331-5.478,1.927-7.608c0.631-0.847,0.898-1.709,0.916-2.972c0.049-2.866,0.141-6.264,0.455-9.746   c0.18-2.063,0.589-4.027,1.217-5.838l0.007-0.185l0.14-0.209c0.012-0.026,0.027-0.053,0.043-0.082   c0.755-1.734,1.795-3.478,2.935-4.922c0.616-0.792,1.273-0.96,1.716-0.96l0.084,0.001c0.46-0.014,1.131,0.127,1.784,0.961   c1.135,1.431,2.177,3.167,2.938,4.896l0.189,0.305l0.005,0.176c0.633,1.81,1.049,3.775,1.235,5.843   c0.323,3.479,0.424,6.876,0.481,9.739c0.022,1.264,0.29,2.126,0.927,2.976c1.598,2.12,2.253,4.68,1.944,7.605   c-0.085,0.843-0.212,1.699-0.34,2.551l-0.046,0.31c-0.172,1.061-0.819,1.614-1.872,1.614l0,0 M24.82,60.326   c-0.008-0.002-0.015-0.005-0.022-0.006 M29.301,32.691c-0.584,1.655-0.964,3.464-1.131,5.376c-0.308,3.412-0.398,6.755-0.446,9.576   c-0.026,1.752-0.452,3.091-1.384,4.341c-1.229,1.639-1.724,3.641-1.473,5.953c0.082,0.791,0.201,1.583,0.321,2.37   c0.143-0.002,0.285-0.006,0.426-0.01c0.03-0.202,0.056-0.406,0.083-0.609c0.067-0.504,0.134-1.01,0.239-1.509   c0.143-0.643,0.37-1.208,0.589-1.755c0.353-0.877,0.387-0.961,5.662-0.961c4.67,0,4.916,0.04,5.257,0.87   c0.251,0.62,0.479,1.185,0.621,1.815c0.109,0.512,0.178,1.016,0.246,1.519c0.028,0.205,0.054,0.408,0.085,0.612   c0.143,0.005,0.285,0.007,0.426,0.009c0.117-0.787,0.234-1.58,0.314-2.365c0.245-2.318-0.255-4.319-1.486-5.951   c-0.937-1.252-1.368-2.59-1.398-4.344c-0.055-2.818-0.154-6.16-0.472-9.568c-0.172-1.907-0.554-3.708-1.139-5.356l-0.05-0.122   c-0.675-1.561-1.606-3.132-2.63-4.434c-1.024,1.312-1.95,2.882-2.618,4.441L29.301,32.691z"/><g><path fill="#000000" d="M27.609,6.306c1.151,0,2.214,1.055,2.24,2.223c0.035,1.22-1.037,2.31-2.266,2.31    c-1.185,0-2.223-1.029-2.249-2.205C25.308,7.405,26.38,6.315,27.609,6.306z"/><path fill="#000000" d="M19.815,6.315c1.229,0.035,2.171,1.029,2.162,2.275c-0.009,1.264-0.941,2.232-2.197,2.24    c-1.264,0.009-2.258-1.02-2.223-2.319C17.575,7.291,18.63,6.28,19.815,6.315z"/><path fill="#000000" d="M11.97,6.315c1.168,0.009,2.232,1.063,2.249,2.232c0.026,1.203-1.063,2.293-2.293,2.284    c-1.177,0-2.223-1.037-2.24-2.214C9.66,7.396,10.749,6.289,11.97,6.315z"/><path fill="#000000" d="M54.281,1.34H9.729c-3.971,0-7.213,3.241-7.213,7.203v37.729c0,3.972,3.241,7.193,7.213,7.193h11.204    c0.195-0.788,0.487-1.538,0.847-2.258H9.729c-2.726,0-4.945-2.219-4.945-4.935V14.89h38.226c0.506,0,0.876-0.38,0.876-0.876    l-0.029-3.709l9.734,0.01v3.67c0,0.496,0.409,0.905,0.915,0.905h4.711v31.382c0,2.716-2.219,4.935-4.935,4.935h-12.07    c0.37,0.72,0.652,1.47,0.857,2.258h11.214c3.971,0,7.203-3.222,7.203-7.193V8.543C61.484,4.581,58.253,1.34,54.281,1.34z     M59.216,13.897l-4.614,0.029v-3.66c0-0.535-0.428-0.973-0.964-0.973h-9.841c-0.506,0-0.915,0.419-0.915,0.925v3.67H4.784V8.543    c0-2.716,2.219-4.935,4.945-4.935h44.553c2.716,0,4.935,2.219,4.935,4.935V13.897z"/></g></g></svg>